<?xml version="1.0" standalone="no"?>
<!DOCTYPE svg PUBLIC "-//W3C//DTD SVG 20010904//EN"
 "http://www.w3.org/TR/2001/REC-SVG-20010904/DTD/svg10.dtd">
<svg version="1.0" xmlns="http://www.w3.org/2000/svg"
 width="700.000000pt" height="700.000000pt" viewBox="0 0 700.000000 700.000000"
 preserveAspectRatio="xMidYMid meet">
<metadata>
Created by potrace 1.11, written by Peter Selinger 2001-2013
</metadata>
<g transform="translate(0.000000,700.000000) scale(0.100000,-0.100000)"
fill="#000000" stroke="none">
<path d="M330 3500 l0 -3500 1070 0 1070 0 0 1380 0 1380 1040 0 1040 0 0
-1380 0 -1380 1070 0 1070 0 0 3500 0 3500 -1060 0 -1060 0 0 -1062 0 -1062
-42 -43 -42 -43 -1018 0 -1018 0 0 1105 0 1105 -1060 0 -1060 0 0 -3500z"/>
</g>
</svg>
