<svg width="239" height="51" viewBox="0 0 239 51" fill="none" xmlns="http://www.w3.org/2000/svg"><path d="M91.5935 32.9871C95.5842 32.9871 97.8543 30.8364 97.8543 27.6821C97.8543 24.934 96.2772 23.4286 92.9078 22.8312L91.3546 22.5444C89.7535 22.2577 89.0366 21.7319 89.0366 20.4654C89.0366 19.2228 89.9686 18.5059 91.7608 18.5059C93.5291 18.5059 94.6761 19.1989 95.4886 20.2265L97.6393 18.1953C96.3011 16.5942 94.4372 15.734 91.9281 15.734C88.2002 15.734 85.8823 17.6696 85.8823 20.6566C85.8823 23.3808 87.5073 24.9818 90.8766 25.5075L92.4538 25.7465C94.1982 26.0572 94.7239 26.7502 94.7239 27.8733C94.7239 29.2832 93.7203 30.2151 91.7847 30.2151C90.0642 30.2151 88.6543 29.4982 87.5073 28.16L85.3805 30.2151C86.7904 31.8639 88.7499 32.9871 91.5935 32.9871Z" fill="#1D2435"/><path d="M104.627 32.7003H106.826V30.2629H104.46V22.6639H107.017V20.2265H104.46V16.8093H101.712V18.9361C101.712 19.7963 101.425 20.2265 100.517 20.2265H99.561V22.6639H101.401V29.5221C101.401 31.5533 102.524 32.7003 104.627 32.7003Z" fill="#1D2435"/><path d="M112.752 32.9871C114.616 32.9871 115.978 32.1507 116.385 30.5497H116.528C116.719 31.84 117.532 32.7003 118.846 32.7003H120.543V30.2629H119.3V24.3844C119.3 21.5408 117.508 19.9397 114.138 19.9397C111.629 19.9397 110.172 20.8956 109.263 22.3293L111.08 23.9543C111.677 23.094 112.489 22.3771 113.923 22.3771C115.548 22.3771 116.241 23.1896 116.241 24.5756V25.4836H114.114C110.721 25.4836 108.786 26.7501 108.786 29.307C108.786 31.5294 110.219 32.9871 112.752 32.9871ZM113.78 30.7647C112.585 30.7647 111.892 30.2629 111.892 29.2593V28.853C111.892 27.8733 112.681 27.3237 114.282 27.3237H116.241V28.9725C116.241 30.1434 115.142 30.7647 113.78 30.7647Z" fill="#1D2435"/><path d="M126.077 32.7003V25.0535C126.077 23.6914 127.152 23.1179 129.207 23.1179H130.163V20.2265H129.494C127.51 20.2265 126.507 21.493 126.196 22.8073H126.077V20.2265H123.018V32.7003H126.077Z" fill="#1D2435"/><path d="M136.388 32.7003H138.586V30.2629H136.22V22.6639H138.777V20.2265H136.22V16.8093H133.472V18.9361C133.472 19.7963 133.185 20.2265 132.277 20.2265H131.322V22.6639H133.162V29.5221C133.162 31.5533 134.285 32.7003 136.388 32.7003Z" fill="#1D2435"/><path d="M148.886 32.7003H151.945V20.2265H148.886V28.4707C148.886 29.8089 147.667 30.4541 146.448 30.4541C144.991 30.4541 144.346 29.5221 144.346 27.8016V20.2265H141.287V28.1122C141.287 31.2187 142.721 32.9871 145.278 32.9871C147.333 32.9871 148.336 31.8639 148.766 30.6213H148.886V32.7003Z" fill="#1D2435"/><path d="M155.479 37.4796H158.537V30.6213H158.633C159.111 32.0312 160.425 32.9871 162.074 32.9871C165.228 32.9871 166.973 30.6213 166.973 26.4395C166.973 22.2816 165.228 19.9397 162.074 19.9397C160.425 19.9397 159.087 20.8478 158.633 22.2816H158.537V20.2265H155.479V37.4796ZM161.094 30.4541C159.637 30.4541 158.537 29.7133 158.537 28.4229V24.4561C158.537 23.2374 159.637 22.4488 161.094 22.4488C162.671 22.4488 163.771 23.6197 163.771 25.3881V27.5387C163.771 29.307 162.671 30.4541 161.094 30.4541Z" fill="#1D2435"/><path d="M186.279 32.7003H189.004V23.6197H182.695V26.2722H185.969V27.3476C185.969 29.2354 184.368 30.1912 182.408 30.1912C179.899 30.1912 178.274 28.6141 178.274 25.6987V23.0223C178.274 20.0831 179.899 18.5298 182.36 18.5298C184.344 18.5298 185.515 19.6052 186.112 21.0389L188.669 19.5335C187.474 17.0961 185.324 15.734 182.36 15.734C177.916 15.734 174.929 18.8166 174.929 24.4083C174.929 30 177.892 32.9871 181.811 32.9871C184.32 32.9871 185.897 31.7445 186.184 30.1195H186.279V32.7003Z" fill="#1D2435"/><path d="M199.922 32.7003H202.981V20.2265H199.922V28.4707C199.922 29.8089 198.703 30.4541 197.485 30.4541C196.027 30.4541 195.382 29.5221 195.382 27.8016V20.2265H192.323V28.1122C192.323 31.2187 193.757 32.9871 196.314 32.9871C198.369 32.9871 199.372 31.8639 199.803 30.6213H199.922V32.7003Z" fill="#1D2435"/><path d="M208.044 18.4104C209.287 18.4104 209.836 17.7652 209.836 16.881V16.4031C209.836 15.5189 209.287 14.8737 208.044 14.8737C206.778 14.8737 206.252 15.5189 206.252 16.4031V16.881C206.252 17.7652 206.778 18.4104 208.044 18.4104ZM206.515 32.7003H209.574V20.2265H206.515V32.7003Z" fill="#1D2435"/><path d="M220.861 32.7003H223.92V15.0171H220.861V22.2816H220.742C220.312 20.8478 218.95 19.9397 217.301 19.9397C214.17 19.9397 212.426 22.2816 212.426 26.4395C212.426 30.6213 214.17 32.9871 217.301 32.9871C218.95 32.9871 220.288 32.0312 220.742 30.6213H220.861V32.7003ZM218.281 30.4541C216.703 30.4541 215.628 29.307 215.628 27.5387V25.3881C215.628 23.6197 216.703 22.4488 218.281 22.4488C219.738 22.4488 220.861 23.2374 220.861 24.4561V28.4229C220.861 29.7133 219.738 30.4541 218.281 30.4541Z" fill="#1D2435"/><path d="M232.489 32.9871C234.807 32.9871 236.624 32.1029 237.651 30.693L236.002 28.853C235.238 29.8328 234.329 30.5497 232.824 30.5497C230.817 30.5497 229.789 29.3309 229.789 27.5387V27.2281H238.081V26.2244C238.081 22.8073 236.289 19.9397 232.394 19.9397C228.738 19.9397 226.611 22.4966 226.611 26.4395C226.611 30.4302 228.809 32.9871 232.489 32.9871ZM232.442 22.2338C234.019 22.2338 234.903 23.4047 234.903 25.1252V25.3403H229.789V25.1491C229.789 23.4286 230.841 22.2338 232.442 22.2338Z" fill="#1D2435"/><path d="M39.5741 12.6924C32.6786 19.588 32.6556 30.7448 39.5227 37.6119L64.4936 12.6411C57.6264 5.77391 46.4696 5.79691 39.5741 12.6924Z" fill="#0458FE"/><mask id="mask0" maskUnits="userSpaceOnUse" x="27" y="0" width="38" height="38"><path d="M39.574 12.6934C32.6785 19.5889 32.6554 30.7458 39.5226 37.6129L64.4935 12.642C57.6263 5.77489 46.4695 5.79789 39.574 12.6934Z" fill="#0458FE"/></mask><g mask="url(#mask0)" fill="#DEECFF"><path transform="rotate(45 65.029 7.474)" d="M65.029 7.474H66.691V62.605999999999995H65.029z"/><path transform="rotate(45 55.584 3.047)" d="M55.584 3.047H57.246V58.178999999999995H55.584z"/><path transform="rotate(45 61.848 6.015)" d="M61.848 6.015H63.51V61.147H61.848z"/><path transform="rotate(45 52.6 1.39)" d="M52.6 1.391H54.262V56.522999999999996H52.6z"/><path transform="rotate(45 58.435 4.84)" d="M58.435 4.839H60.097V59.971H58.435z"/></g><path d="M39.5742 37.7216C46.4697 44.6172 57.6266 44.6402 64.4937 37.773L39.5228 12.8021C32.6557 19.6693 32.6787 30.8261 39.5742 37.7216Z" fill="#0458FE"/><path d="M31.3974 25.2074H10.5372C5.52612 25.2074 1.46759 21.2346 1.46759 16.3404C1.46759 11.4413 5.53119 7.47345 10.5372 7.47345H31.3974V25.2074Z" fill="#FF1F55"/><path d="M5.36076e-06 25.2085L20.8025 25.2086C25.7997 25.2086 29.847 29.1704 29.847 34.051C29.847 38.9366 25.7947 42.8934 20.8025 42.8934L3.8147e-06 42.8934L5.36076e-06 25.2085Z" fill="#0458FE"/><path d="M51.9455 25.2085C61.717 25.2085 69.6385 33.1299 69.6385 42.9015H51.9455V25.2085Z" fill="#FF1F55"/><rect x="12.163" y="25.209" width="17.684" height="17.684" rx="8.842" fill="#001EFD"/><rect x="13.842" y="26.887" width="14.326" height="14.326" rx="7.163" fill="#0458FE"/><rect x="15.582" y="28.627" width="10.845" height="10.845" rx="5.423" fill="#001EFD"/><rect x="17.379" y="30.425" width="7.251" height="7.251" rx="3.626" fill="#0458FE"/><rect x="19.126" y="32.171" width="3.757" height="3.757" rx="1.879" fill="#001EFD"/><rect x="1.492" y="7.473" width="17.734" height="17.734" rx="8.867" fill="#E11646"/><rect x="3.196" y="9.178" width="14.326" height="14.326" rx="7.163" fill="#FF1F55"/><rect x="4.936" y="10.918" width="10.845" height="10.845" rx="5.423" fill="#E11646"/><rect x="6.733" y="12.716" width="7.251" height="7.251" rx="3.626" fill="#FF1F55"/><rect x="8.48" y="14.462" width="3.757" height="3.757" rx="1.879" fill="#E11646"/></svg>